<?xml version="1.0" encoding="UTF-8" standalone="no"?>
<!-- Created with Inkscape (http://www.inkscape.org/) -->

<svg
   width="23mm"
   height="50mm"
   viewBox="0 0 23 50"
   version="1.1"
   id="svg1"
   xml:space="preserve"
   inkscape:version="1.4 (e7c3feb100, 2024-10-09)"
   sodipodi:docname="hook_shape.svg"
   xmlns:inkscape="http://www.inkscape.org/namespaces/inkscape"
   xmlns:sodipodi="http://sodipodi.sourceforge.net/DTD/sodipodi-0.dtd"
   xmlns="http://www.w3.org/2000/svg"
   xmlns:svg="http://www.w3.org/2000/svg"><sodipodi:namedview
     id="namedview1"
     pagecolor="#ffffff"
     bordercolor="#000000"
     borderopacity="0.25"
     inkscape:showpageshadow="2"
     inkscape:pageopacity="0.0"
     inkscape:pagecheckerboard="0"
     inkscape:deskcolor="#d1d1d1"
     inkscape:document-units="mm"
     inkscape:zoom="3.6203867"
     inkscape:cx="94.188833"
     inkscape:cy="99.713105"
     inkscape:window-width="2560"
     inkscape:window-height="1388"
     inkscape:window-x="0"
     inkscape:window-y="0"
     inkscape:window-maximized="1"
     inkscape:current-layer="layer1" /><defs
     id="defs1" /><g
     inkscape:label="Layer 1"
     inkscape:groupmode="layer"
     id="layer1"><path
       style="fill:#000000"
       d="m 15.361692,49.661608 c -0.291041,-0.10936 -0.946157,-0.49058 -1.455812,-0.84715 l -0.926646,-0.6483 -0.57373,-1.20905 -0.57373,-1.20905 0.346157,-5.76526 c 0.190386,-3.17089 0.514621,-8.78151 0.720521,-12.46804 0.2059,-3.68653 0.599272,-9.49947 0.87416,-12.91764 l 0.499797,-6.2148595 -0.370064,-1.34027 c -0.203535,-0.73714 -0.700895,-1.78773 -1.105244,-2.33464 l -0.73518,-0.99439 -1.509897,-0.57663 -1.5098957,-0.57664 -1.3015159,0.24417 c -1.714824,0.3217 -2.845707,1.0964 -4.0723185,2.78969 l -1.006601,1.38957 0.0058,1.62276 0.0058,1.6227695 0.787947,1.29899 c 0.43337,0.71444 1.4071165,2.02991 2.1638815,2.92326 l 1.375936,1.62426 0.165724,1.72473 0.165725,1.72473 -0.947684,0.94769 -0.947684,0.94768 -1.1231425,-0.21902 -1.123143,-0.21902 -1.411111,-0.9837 -1.41110395,-0.98371 v -0.86517 -0.86517 l 0.79313995,-0.11265 0.793141,-0.11265 1.025207,0.73001 c 1.296706,0.92334 1.4454555,0.91461 1.4454555,-0.0848 v -0.81483 l -1.6023065,-1.87716 c -0.881269,-1.03243 -1.86459495,-2.37232 -2.18516995,-2.97752 l -0.582862,-1.10038 -0.01969,-2.6458295 -0.01969,-2.64583 1.01041495,-1.5875 1.010415,-1.5875 1.459029,-1.04769 1.4590295,-1.04768002 2.645833,-0.12552 2.6458336,-0.12551997 1.280328,0.54277997 c 0.704181,0.29853 1.742973,0.93207002 2.308428,1.40787002 l 1.028099,0.86509 1.008585,1.99343 1.008585,1.99344 -0.232488,4.8274495 c -0.127868,2.6551 -0.468732,8.47871 -0.757475,12.94135 -0.288744,4.46264 -0.630115,11.23993 -0.758604,15.06064 0,0 -0.22086,4.58344 0.0506,6.404147 0.08484,0.569048 0.716802,0.793843 0.716802,0.793843 l 1.001023,0.25125 0.90639,-0.51191 0.906389,-0.5119 -0.02601,-1.57082 -0.02601,-1.57081 -1.182396,-3.175 c 0,0 -1.007817,-2.48547 -1.079044,-3.239596 -0.152448,-1.613994 0.759342,-1.986901 0.903994,-2.035654 0.438866,-0.147914 1.255939,0.229094 1.436542,0.735897 0.664462,1.86459 0.753366,2.283053 1.899854,5.733883 1.201459,3.6163 1.284598,4.49218 0.585269,6.16591 l -0.486417,1.16416 -0.972269,0.76478 -0.972269,0.76479 -1.45173,-0.0278 c -0.798452,-0.0153 -1.689856,-0.11733 -1.980898,-0.22669 z"
       id="path1"
       sodipodi:nodetypes="cscccssscccccccccccccccccccccccccccsccccccccccccsscccssssccccccczzssscccccc" /></g></svg>
